<svg xmlns="http://www.w3.org/2000/svg" viewBox="0 0 1954 3015" fill="#2196F3">
    <path d="M1070.682 531.75c279.292.142 558.591-.357 837.88.244 50.215 10.852 51.07 70.759 46.354 116.32-.401 598.138 1.121 1196.37-.725 1794.442-16.894 46.356-69.172 42.602-112.343 40.52-261.787-.194-523.581.37-785.364-.27-27.386-8.445-54.612-35.792-49.098-69.884.468-611.482-1.165-1223.043.74-1834.47 9.69-27.484 33.187-47.906 62.556-46.902zM1277.534 1289v121h410v-121h-410zm0 225v121h410v-121h-410zM60.682 1512.75c279.29.145 558.599-.376 837.879.248 22.056 8.094 47.186 26.376 49.1 54.219-.34 290.224.959 580.523-.46 870.703-11.234 26.017-33.625 46.408-62.793 45.339-279.29-.143-558.599.373-837.879-.25-25.565-8.776-53.553-32.129-46.376-65.614.252-287.503-.784-575.039.407-862.52 9.548-25.342 33.021-42.801 60.122-42.125zm348.852 278.252v147h-142v121h142v147h126v-147h142v-121h-142v-147h-126zM60.682 531.75c279.29.143 558.599-.357 837.879.244 21.3 7.293 42.919 24.105 48.868 48.983.52 273.084.377 546.192.237 819.28-2.85 24.217-23.23 41.77-41.95 50.255-44.927 6.52-92.593.768-138.507 2.77-240.225-.223-480.469.378-720.684-.275-22.953-8.046-49.496-27.239-46.476-57.428.348-274.006-.807-548.057.594-822.035 8.034-21.97 27.983-37.068 49.355-41.658-3.363.115 14.318-.52 10.684-.136zm202.852 400.252v121h410v-121h-410zM1070.682 2542.75c279.29.153 558.6-.393 837.88.248 19.434 7.224 41.399 20.659 46.328 44.298-1.981 37.582 4.467 76.524-3.202 113.25-11.419 18.578-29.842 32.06-51.313 33.716-107.612-.075-215.225-.148-322.837-.247-.611 79.42 1.562 159.027-.784 238.335-6.28 19.72-23.969 36.153-40.213 42.665h-109c-17.04-6.915-37.773-25.256-41.031-47.78-.176-77.738.05-155.48.032-233.22-109.616-.177-219.255.682-328.858-.113-20.415-5.776-39.109-19.981-48.317-41.654-3.693-33.936-2.54-69.394-1.007-103.745 6.846-19.645 23.051-36.096 40.85-42.502 4.942-4.463 14.962-2.796 21.472-3.251zM1427.534.002h109c17.04 6.915 37.773 25.256 41.03 47.78.172 77.738-.046 155.48-.031 233.22 109.945.17 219.913-.676 329.845.106 20.273 6.144 42.341 20.408 47.51 44.183-1.98 37.582 4.468 76.523-3.2 113.25-11.535 18.72-30.13 32.313-51.887 33.738-281.094-.213-562.207.366-843.291-.27-19.57-6.84-38.207-20.219-47.148-41.772-3.693-33.936-2.54-69.393-1.007-103.744 6.846-19.646 23.051-36.097 40.85-42.503 33.272-7.516 70.883-.947 105.723-3.176 77.202.076 154.404.1 231.607.186.61-79.42-1.563-159.027.783-238.335 7.924-17.394 19.66-37.965 40.214-40.665V0zM418.534.002h109c17.04 6.915 37.773 25.256 41.03 47.78.172 77.738-.048 155.48-.032 233.22 109.616.17 219.255-.678 328.858.108 20.414 5.776 39.109 19.98 48.317 41.654 3.694 33.936 2.541 69.393 1.008 103.744-7.86 17.806-19.7 37.631-40.18 40.494-25.693 11.818-61.955 2.224-91.748 5.26-256.09-.183-512.2.378-768.28-.253C27.074 464.785 5.109 451.35.18 427.71c1.981-37.581-4.467-76.523 3.202-113.249 11.419-18.578 29.842-32.06 51.313-33.716 107.612.096 215.225.151 322.837.255V75c1.439-22.802 1.596-58.468 31-68-.255-7.574 10.238-1.636 10.003-6.998zM60.682 2542.75c279.29.153 558.6-.393 837.879.248 19.91 6.953 39.007 20.72 47.5 43.056 3.549 33.703 2.27 68.463.668 102.403-6.822 19.678-23.05 36.146-40.86 42.56-33.274 7.519-70.884.957-105.724 3.186-77.203-.078-154.405-.101-231.607-.188-.61 79.42 1.564 159.027-.783 238.335-6.28 19.72-23.969 36.153-40.213 42.665h-109c-15.618-6.614-37.26-23.4-39.114-44.67 1.431-21.204-2.527-37.014-1.89-57.511v-178.819c-109.946-.124-219.912.646-329.845-.113-20.273-6.144-42.34-20.408-47.51-44.182 1.98-37.582-4.468-76.524 3.201-113.25 11.535-18.721 30.13-32.314 51.886-33.738l5.412.025z" />
</svg>